# xmcd
#
# Track frame offsets:
#	150
#	16617
#	47089
#	74515
#	97817
#	111090
#	138385
#	170334
#	217683
#
# Disc length: 3562 seconds
#
# Revision: 1
# Processed by: cddbd v1.5.2PL0 Copyright (c) Steve Scherf et al.
# Submitted via: audiograbber 1.83.01
#
DISCID=6c0de809
DTITLE=Grateful Dead - 70-11-07A Capitol Theatre, Port Chester NY
DYEAR=1900
DGENRE=
TTITLE0=Tuning
TTITLE1=Attics Of My Life
TTITLE2=Sugar Magnolia
TTITLE3=Big Boss Man
TTITLE4=Mama Tried
TTITLE5=China Cat Sunflower
TTITLE6=I Know You Rider
TTITLE7=King Bee
TTITLE8=Good Lovin'
EXTD=
EXTT0=
EXTT1=
EXTT2=
EXTT3=
EXTT4=
EXTT5=
EXTT6=
EXTT7=
EXTT8=
PLAYORDER=
